<svg xmlns="http://www.w3.org/2000/svg" xmlns:xlink="http://www.w3.org/1999/xlink" width="1080" zoomAndPan="magnify" viewBox="0 0 810 809.999993" height="1080" preserveAspectRatio="xMidYMid meet" version="1.0"><defs><g/></defs><g fill="#9ea1d4" fill-opacity="1"><g transform="translate(116.739767, 666.882673)"><g><path d="M 196.1875 -430.042969 L 196.1875 -498.28125 C 152.824219 -498.992188 110.175781 -498.992188 66.105469 -496.859375 L 28.433594 -496.859375 L 33.410156 -2.132812 L 101.648438 -3.554688 L 99.515625 -218.222656 C 107.332031 -218.933594 115.863281 -219.640625 124.394531 -220.351562 C 140.742188 -221.0625 157.089844 -221.773438 172.019531 -221.773438 L 172.730469 -290.011719 C 154.246094 -290.011719 137.1875 -289.300781 120.128906 -288.589844 C 113.019531 -287.882812 105.910156 -287.171875 98.804688 -286.460938 L 97.382812 -429.332031 C 130.078125 -430.042969 162.777344 -430.042969 196.1875 -430.042969 Z M 196.1875 -430.042969 "/></g></g></g><g fill="#9ea1d4" fill-opacity="1"><g transform="translate(342.068415, 666.882673)"><g><path d="M 322 -162.066406 L 253.761719 -157.800781 C 253.761719 -151.402344 253.761719 -144.296875 253.050781 -137.898438 C 251.628906 -131.5 250.207031 -125.105469 248.074219 -118.707031 C 245.230469 -112.308594 243.097656 -105.910156 239.546875 -100.9375 C 235.992188 -95.25 231.726562 -90.273438 227.460938 -86.007812 C 223.90625 -81.742188 218.933594 -78.191406 214.667969 -76.058594 C 210.402344 -73.925781 205.425781 -72.503906 199.738281 -71.792969 C 189.789062 -70.371094 178.414062 -72.503906 167.042969 -78.191406 C 162.066406 -81.03125 156.378906 -84.585938 151.402344 -88.851562 C 146.429688 -93.117188 141.453125 -97.382812 137.1875 -103.070312 C 127.945312 -113.730469 120.839844 -126.527344 114.441406 -140.742188 C 108.753906 -154.957031 104.488281 -169.886719 100.9375 -185.523438 C 99.515625 -193.34375 98.804688 -201.160156 97.382812 -208.980469 C 96.671875 -216.800781 96.671875 -225.328125 96.671875 -233.148438 C 95.960938 -265.136719 100.9375 -297.832031 109.464844 -329.820312 C 113.730469 -346.167969 119.417969 -361.804688 125.105469 -375.3125 C 128.65625 -382.417969 132.210938 -388.105469 135.765625 -393.082031 C 139.320312 -398.769531 144.296875 -403.035156 148.5625 -407.296875 C 157.800781 -415.828125 169.175781 -420.804688 179.835938 -422.9375 C 181.96875 -422.9375 184.8125 -423.648438 187.65625 -423.648438 C 188.367188 -423.648438 189.789062 -422.9375 191.210938 -422.9375 L 191.921875 -422.9375 C 192.632812 -422.9375 192.632812 -422.9375 192.632812 -422.9375 C 193.34375 -422.9375 193.34375 -422.9375 193.34375 -422.9375 C 196.1875 -422.226562 201.160156 -420.09375 206.136719 -416.539062 C 216.089844 -410.140625 226.039062 -399.480469 233.148438 -388.105469 C 236.703125 -382.417969 239.546875 -376.734375 241.679688 -371.046875 C 243.808594 -365.359375 245.230469 -359.671875 245.230469 -354.699219 L 313.46875 -357.542969 C 312.757812 -370.335938 309.917969 -382.417969 306.363281 -393.792969 C 302.097656 -404.453125 297.121094 -415.117188 291.433594 -424.359375 C 285.039062 -434.308594 278.640625 -442.839844 270.820312 -451.367188 C 263.003906 -459.1875 254.472656 -467.007812 244.519531 -473.402344 C 233.859375 -479.800781 222.484375 -486.199219 208.269531 -489.753906 L 202.582031 -490.464844 L 199.738281 -491.175781 L 196.894531 -491.175781 C 194.054688 -491.175781 190.5 -491.886719 187.65625 -491.886719 C 181.257812 -491.886719 174.859375 -491.175781 168.464844 -489.753906 C 143.585938 -486.199219 121.550781 -474.113281 103.78125 -459.1875 C 94.539062 -451.367188 86.71875 -442.839844 80.324219 -432.886719 C 73.925781 -423.648438 68.238281 -414.40625 63.972656 -404.453125 C 58.996094 -395.214844 55.445312 -385.261719 52.601562 -376.023438 C 49.046875 -366.78125 46.203125 -357.542969 43.359375 -348.300781 C 33.410156 -310.628906 27.722656 -272.242188 28.433594 -232.4375 C 28.433594 -222.484375 29.144531 -212.535156 29.855469 -202.582031 C 30.566406 -192.632812 31.988281 -182.679688 34.121094 -172.730469 C 37.671875 -152.824219 43.359375 -132.921875 51.890625 -114.441406 C 59.707031 -95.25 70.371094 -76.769531 83.875 -59.707031 C 90.984375 -51.179688 98.804688 -43.359375 108.042969 -35.539062 C 116.574219 -28.433594 126.527344 -22.035156 137.1875 -17.058594 C 147.851562 -12.082031 159.222656 -7.820312 171.308594 -4.976562 C 183.390625 -2.84375 196.1875 -2.132812 208.980469 -4.265625 C 221.0625 -5.6875 233.859375 -9.242188 245.230469 -15.636719 C 257.316406 -21.324219 267.265625 -28.433594 275.796875 -36.960938 C 284.328125 -45.492188 291.433594 -54.734375 297.121094 -64.683594 C 303.519531 -74.636719 308.496094 -84.585938 312.046875 -95.25 C 316.3125 -105.910156 318.445312 -117.285156 320.578125 -127.945312 C 322 -139.320312 322 -150.691406 322 -162.066406 Z M 322 -162.066406 "/></g></g></g></svg>